<svg version="1.2" xmlns="http://www.w3.org/2000/svg" viewBox="0 0 507 448" width="1920" height="1697">
	<title>5184409-ai</title>
	<defs>
		<clipPath clipPathUnits="userSpaceOnUse" id="cp1">
			<path d="m507 448h-900v-500h900z"/>
		</clipPath>
		<clipPath clipPathUnits="userSpaceOnUse" id="cp2">
			<path d="m-197.46 300.81c0 8.78-7.12 15.9-15.9 15.9-8.79 0-15.91-7.12-15.91-15.9 0-8.78 7.12-15.9 15.91-15.9 8.78 0 15.9 7.12 15.9 15.9z"/>
		</clipPath>
		<clipPath clipPathUnits="userSpaceOnUse" id="cp3">
			<path d="m-287.08 300.81c0 8.78-7.12 15.9-15.91 15.9-8.78 0-15.9-7.12-15.9-15.9 0-8.78 7.12-15.9 15.9-15.9 8.79 0 15.91 7.12 15.91 15.9z"/>
		</clipPath>
		<clipPath clipPathUnits="userSpaceOnUse" id="cp4">
			<path d="m-243.54 300.81c0 8.78-7.12 15.9-15.91 15.9-8.78 0-15.9-7.12-15.9-15.9 0-8.78 7.12-15.9 15.9-15.9 8.79 0 15.91 7.12 15.91 15.9z"/>
		</clipPath>
	</defs>
	<style>
		tspan { white-space:pre } 
		.s0 { fill: #ffffff } 
		.s1 { fill: #a0c6f4 } 
		.s2 { fill: none;stroke: #2a1e17;stroke-linecap: round;stroke-linejoin: round } 
		.s3 { fill: #2a1e17 } 
		.s4 { fill: #eaecec } 
		.s5 { fill: #f9865f } 
		.s6 { fill: #000000 } 
		.s7 { fill: #2a1e33 } 
		.s8 { fill: #7595ec } 
		.s9 { fill: #ff8a66 } 
		.s10 { fill: #fff7c9 } 
		.s11 { fill: none;stroke: #2a1e33;stroke-linecap: round;stroke-linejoin: round } 
		.s12 { fill: #ff6d66 } 
		.s13 { fill: #fad8b0 } 
		.s14 { fill: #c6cbcb } 
		.s15 { fill: #fff7dc } 
		.s16 { fill: #ffe1c0 } 
		.s17 { fill: #ffffff;stroke: #2a1e17;stroke-linecap: round;stroke-linejoin: round } 
		.s18 { fill: #91ba83 } 
		.s19 { fill: none;stroke: #2a1e17;stroke-linecap: round;stroke-linejoin: round;stroke-width: .7 } 
		.s20 { fill: #96bd89 } 
		.s21 { fill: none;stroke: #ff6d66;stroke-linecap: round;stroke-linejoin: round } 
		.s22 { fill: none;stroke: #fad8b0;stroke-miterlimit:10 } 
		.s23 { fill: none;stroke: #a0c6f4;stroke-linecap: round;stroke-linejoin: round } 
		.s24 { fill: #f6f6f6 } 
		.s25 { fill: #959595 } 
		.s26 { fill: #a4a4a4 } 
		.s27 { fill: #242424 } 
	</style>
	<g id="BACKGROUND">
	</g>
	<g id="OBJECTS">
		<g id="&lt;Clip Group&gt;" clip-path="url(#cp1)">
			<g id="&lt;Group&gt;">
				<g id="&lt;Group&gt;">
					<g id="&lt;Group&gt;">
						<path id="&lt;Path&gt;" class="s0" d="m328.9 159.9c-32.4-30.4-70.3-38.2-80.4-39.8 6.8-18.3 17.2-45.4 19.8-49.4 0.9-0.1 2.6-0.3 5.1-0.3 7.4 0 23.2 1.6 46 11.8 32.9 14.9 41.8 31.5 43.5 35.6z"/>
						<path id="&lt;Compound Path&gt;" fill-rule="evenodd" class="s1" d="m320.2 80.4c38.9 17.5 45 37.8 45 37.8l-36.1 44.6c-37.7-36.5-83.3-41.1-83.3-41.1 0 0 19.2-52.1 21.5-52.9 0 0 2.1-0.4 6.1-0.4 8.1 0 24 1.7 46.8 12zm-50.6-7.8c-2.7 5.1-10.9 25.8-18.3 45.9 4.9 0.9 13.2 2.7 23.3 6.3 14.3 5.1 35 14.7 54.1 32.1l31.8-39.4c-2.5-5-12.1-20-41.9-33.5-22.5-10.1-38-11.6-45.2-11.6-1.7 0-2.9 0.1-3.8 0.2z"/>
					</g>
					<path id="&lt;Path&gt;" class="s2" d="m252.5 125.7c0 0 44.8 4.6 72.4 29.9"/>
					<path id="&lt;Path&gt;" class="s1" d="m291.2 123.5l16.7-32.5 17.2 33.9z"/>
					<path id="&lt;Path&gt;" class="s2" d="m294.4 123.1l16.7-32.5 17.2 33.9z"/>
				</g>
				<path id="&lt;Path&gt;" class="s2" d="m278.7 66.4c0 0 50.3 4.6 81.5 41.7"/>
			</g>
			<path id="&lt;Path&gt;" class="s3" d="m304.4 210.5c-2.8-2.1-4.6-3.4-4.6-3.4 0.8-1 12.9-13.9 19.9-24.3 0 0-14.2 28.5-15.3 27.7z"/>
			<path id="&lt;Path&gt;" class="s2" d="m133.1 116.6c1.4 2.2 2 1.3 5.9 1 3.8-0.3 9.4 2.6 11.3 7.4 2 4.8 1.4 5.5 0.3 6.1-1 0.6-8.5 1.5-8.8 3"/>
			<path id="&lt;Path&gt;" class="s4" d=""/>
			<g id="&lt;Group&gt;">
				<path id="&lt;Path&gt;" class="s5" d="m233.9 360.1l-3.5-5.9-12.4 20.6 3.3 2.5z"/>
				<path id="&lt;Path&gt;" class="s5" d="m151.8 309c0 0-6.4-10.5-3.7-15.6l20.5 2.2z"/>
				<path id="&lt;Path&gt;" class="s6" d="m151.8 309l1.2 2.8-3.8 14.7c-0.4 1.8 0.2 3.8 1.6 5.1l18.7-27.7c1.8-2.6 1.4-6.1-0.9-8.3l-4.2-3.9z"/>
				<path id="&lt;Path&gt;" class="s7" d="m141.8 134.1c5.8-0.1 13.3-0.5 11.8-5-1.5-4.4-7.1-15.5-19.7-12.2 0 0-4.4 3.7 1.1 10.4 5.6 6.7 6.8 6.8 6.8 6.8z"/>
				<path id="&lt;Path&gt;" class="s8" d="m171.4 295.9c0 0-10-29.5-1.5-42.5 7-10.7 29.8 6.7 32.9 9.1l16.3-29.5c0 0-3.8-5.3-13-10.4-9.3-5.2-47.5-20.7-65.4 7.6-6.6 10.5-6.7 55.4 6 72.6z"/>
				<path id="&lt;Path&gt;" class="s2" d="m171.4 295.9c0 0-10-29.5-1.5-42.5 7-10.7 29.8 6.7 32.9 9.1"/>
				<path id="&lt;Path&gt;" class="s8" d="m219.1 233c-7.4 7.8-29.4 45.8-34.4 64-6.6 24.3-4.1 44.5 32.3 84l17.5-25.6c0 0-12.3-18.8-10-36.4 3.3-25.6 21.5-50.4 30.8-66.2z"/>
				<path id="&lt;Path&gt;" class="s3" d="m221.9 236.3l29.2 23 8.8-13.3z"/>
				<path id="&lt;Path&gt;" class="s9" d="m389.8 212.2q6.8 1.4 10.4 5.2c2.4 2.5 1.3 3.8 0.5 4.5-0.9 0.8-4.3-0.1-7.2-2.7-2.9-2.6-3.7-7-3.7-7z"/>
				<path id="&lt;Path&gt;" class="s5" d="m299.8 207.1c0.8-1 12.9-13.9 19.9-24.3 0 0 21.1 23.7 23.4 24.5 0.9 0.3 6.1 0.2 12.5 0.1 10.9-0.1 25.4-0.2 28.6 1.4 5.1 2.5 8.1 3.8 9.4 7.4 1.3 3.6 1.8 5.9-1.3 6.1-3.5 0.3-5.8-4.3-5.8-4.3 0 0-2.9 1.7-10.5 4.6 0 0-27.1 10.5-45.2 5.4-5-1.4-31-20.9-31-20.9z"/>
				<path id="&lt;Path&gt;" class="s5" d="m135.5 112.4c-2.3 0.9-3.7 1.9-2.4 4.2 1.4 2.2 2 1.3 5.9 1 3.8-0.3 9.4 2.6 11.3 7.4 2 4.8 1.4 5.5 0.3 6.1-1 0.6-8.5 1.5-8.8 3-0.3 1.5 3 5.9 9.9 5.6l1.7-0.3c0 0 14.4 14.1 16.5 16.2 2.1 2.1 17.5 12.6 26 14.7 6.4 1.6 19.5-0.5 27.3-2 3.8-0.8 6.4-1.4 6.4-1.4 0 0-5.9-10.6-7.1-26.9 0 0-14.1 2.3-23.4 4.3 0 0-21.9-12.2-32.5-17.5 0 0-9.2-11.4-13.6-12.9-4.3-1.5-14.3-2.7-17.5-1.5z"/>
				<path id="&lt;Path&gt;" class="s3" d="m223.2 168.3c3.8-0.8 6.4-1.4 6.4-1.4 0 0-7.1-9-8.3-25.3 0 0-3.2 3.5-2.2 12.7 1.2 11.6 4.1 14 4.1 14z"/>
				<path id="&lt;Path&gt;" class="s10" d="m221 139.8c0 0 0.2 19.9 5.5 28.2l1.9-0.7c0 0-25.2 29.4-33.3 48.6-1.3 3.2 52.2 37.4 60.2 36.9 0 0 26-39.8 35-51.6l9.6 7.4c0 0 18.8-19 19.8-25.8 0 0-18.2-22.1-33-28.6-14.9-6.5-28.2-17.6-44.2-17.3-13.8 0.3-21.5 2.9-21.5 2.9z"/>
				<path id="&lt;Path&gt;" class="s3" d="m299.9 208.6l-9.6-7.4 1.5-4.2z"/>
				<path id="&lt;Path&gt;" class="s5" d="m314.5 129.8c-1.7 5.3-6.6 20.4-12 22.2-5.4 1.9-11-0.4-11-0.4l-5.8 2.9c-0.6 1.9-5.2 3.6-11.1 3.8-4.3 0.2-6.9-5.4-5.7-9.4 0.6-1.9 2.8-11 2.8-11 0 0 4.7-17.2 9-20.8 4.3-3.5 8.3-7 19.8-2.4 17.5 7.1 14 15.1 14 15.1z"/>
				<path id="&lt;Path&gt;" class="s7" d="m279.7 130.6c-0.8 3.2-4.1 9.6-6.3 8.4-2.2-1.1-2.9-4.1-1.4-9.7 1.5-5.7 2.8-18.5 7.2-20.8 4.3-2.3 6.3 0.4 6.3 0.4 0 0-2-9.4 3.7-10.7 0 0 1.9-0.9 1.1 5.6 0 0 2.2-5.9 9.3-5.2 7 0.8 9.5 10.7 9.5 10.7 0 0 0.5-2.7 3.7-2.7 3.2 0 8.1 4.7 6.9 10 0 0 8.2-2.6 12.6 4 4.4 6.5 3.8 13.7-6.7 16.5-11 3-10.9-9.9-12.6-11.5-1.6-1.7-3.4-3.6-9.6-1.3-6.1 2.3-12.5-4.5-12.5-4.5 0 0-1.1 8.2-2.1 9-1 0.7-3.1 1.8-2.6-2.1 0.5-3.8 1.2-3.4 0.8-4.5-0.4-1-2.1-4.2-5.8-1.4-4.1 3.2-1.5 9.8-1.5 9.8z"/>
				<path id="&lt;Path&gt;" class="s11" d="m281.4 132c-2.4-2-4.1-5.7-2-9.3 2.2-3.6 5.7-4.1 6.8-2.7 1.1 1.3 1.5 3.7 0.5 6.4"/>
				<path id="&lt;Path&gt;" class="s6" d="m221.3 377.3l1.2 2.8-3.8 14.7c-0.4 1.9 0.2 3.8 1.6 5.1l18.7-27.7c1.8-2.6 1.4-6.1-0.9-8.3l-4.2-3.8z"/>
				<path id="&lt;Path&gt;" class="s11" d="m285.5 108.9c0 0-1.5-4.7-5.8-5.9"/>
				<path id="&lt;Path&gt;" class="s2" d="m194.5 214.5l51.8-72.3"/>
				<path id="&lt;Path&gt;" class="s2" d="m267.7 147.3c-1.9 2.4-2.8 12.8 5.8 13.5 8.6 0.7 14.1-3.1 14.1-3.1"/>
				<path id="&lt;Path&gt;" class="s2" d="m153 113.9c0 0 5.9 7.8 6.9 10.6"/>
				<path id="&lt;Path&gt;" class="s2" d="m374.6 218.9c0 0 4 3.3 11.9-0.9 2.8-1.6 0.8-5.2-2.8-4.3-3.6 0.9-7.9-0.4-7.9-0.4"/>
				<path id="&lt;Path&gt;" class="s2" d="m391.2 212.6c0 0 3.8 4.5 3.6 7.1"/>
				<path id="&lt;Path&gt;" class="s2" d="m335.3 212.1c0 0 3.5-4.5 7.8-4.8"/>
				<path id="&lt;Path&gt;" class="s2" d="m190.7 151.7c0 0 2-6.2 8.4-7.4"/>
				<path id="&lt;Path&gt;" class="s2" d="m208.1 246.4l-7.7 14.6c0 0-25.2 42.7-16.7 70.3"/>
				<path id="&lt;Path&gt;" class="s2" d="m230.4 295.4l24.9-42.6c0 0 32.5-47.2 35.8-53.9l11.5-21.2"/>
				<path id="&lt;Path&gt;" class="s2" d="m198 219.1c0 0 44.2 32.2 57.3 33.7"/>
				<path id="&lt;Path&gt;" class="s2" d="m221 139.8c0 0-0.1 20.2 5.4 28.5"/>
				<path id="&lt;Path&gt;" class="s2" d="m318.3 179.6c-1.4 8.3-19.9 25.8-19.9 25.8"/>
			</g>
			<path id="&lt;Path&gt;" class="s3" d=""/>
			<path id="&lt;Path&gt;" class="s5" d=""/>
			<path id="&lt;Path&gt;" class="s3" d="m183.3 280.7c0 1.4-1.1 2.6-2.6 2.6-1.4 0-2.6-1.2-2.6-2.6 0-1.4 1.2-2.6 2.6-2.6 1.5 0 2.6 1.2 2.6 2.6z"/>
			<g id="&lt;Group&gt;">
				<path id="&lt;Path&gt;" class="s2" d="m426.8 337.1l-1.5-10.1 8.6 5.7-4.5 1z"/>
				<path id="&lt;Path&gt;" class="s2" d="m143 165.8c-16.2-14.3-43 21.4 55 134.9 56.6 65.5 101 71.4 107 48.6 10.8-40.9-28.2-51.2-13.6-35.2 21.1 23.3 81.1 28.2 125.8 6.5 44.1-21.5 17-54.8 14.3-56.7"/>
				<path id="&lt;Path&gt;" class="s3" d="m420.5 320.4c0 1.4-1.1 2.6-2.6 2.6-1.4 0-2.6-1.2-2.6-2.6 0-1.5 1.2-2.7 2.6-2.7 1.5 0 2.6 1.2 2.6 2.7z"/>
				<path id="&lt;Path&gt;" class="s2" d="m379.7 341.8l77.8-43.8"/>
				<path id="&lt;Path&gt;" class="s3" d="m147.3 167.9c0 1.5-1.2 2.7-2.7 2.7-1.4 0-2.6-1.2-2.6-2.7 0-1.4 1.2-2.6 2.6-2.6 1.5 0 2.7 1.2 2.7 2.6z"/>
			</g>
			<path id="&lt;Path&gt;" class="s12" d="m217.1 113.8c0 3.1-2.5 5.6-5.6 5.6-3.1 0-5.6-2.5-5.6-5.6 0-3.1 2.5-5.6 5.6-5.6 3.1 0 5.6 2.5 5.6 5.6z"/>
			<g id="&lt;Group&gt;">
				<path id="&lt;Path&gt;" class="s1" d="m109.4 70.9c-1.4 0-2.5 1.1-2.5 2.5 0 1.3 1.1 2.4 2.5 2.4 1.4 0 2.5-1.1 2.5-2.4 0-1.4-1.1-2.5-2.5-2.5z"/>
			</g>
			<path id="&lt;Path&gt;" class="s13" d="m443.3 375.6c0 1.4-1.1 2.5-2.5 2.5-1.4 0-2.5-1.1-2.5-2.5 0-1.4 1.1-2.5 2.5-2.5 1.4 0 2.5 1.1 2.5 2.5z"/>
			<g id="&lt;Group&gt;">
				<path id="&lt;Path&gt;" class="s7" d="m396.6 263.9l-26.6-12.5c-2.1-1-2.1-4.1 0.1-5l49.5-21.8c0.7-0.3 1.4-0.3 2.2 0l33.9 14.6z"/>
				<path id="&lt;Path&gt;" class="s14" d="m395 222.9c0 11 1.6 41 1.6 41l59.1-24.7-1.3-41.8c-0.1-2.5-2.7-4.2-5.1-3.1l-50.9 23.2c-2.1 1-3.4 3.1-3.4 5.4z"/>
				<path id="&lt;Path&gt;" class="s2" d="m396.6 263.9l59.1-24.7-1.3-41.8c0 0-0.4-4.5-5.1-3.1"/>
				<path id="&lt;Path&gt;" class="s2" d="m425.2 233.9l4-9.5"/>
				<path id="&lt;Path&gt;" class="s2" d="m429.2 233.9l4-9.5"/>
			</g>
			<path id="&lt;Path&gt;" class="s12" d="m122.5 334.3c0 1.4-1.1 2.5-2.4 2.5-1.4 0-2.5-1.1-2.5-2.5 0-1.4 1.1-2.5 2.5-2.5 1.3 0 2.4 1.1 2.4 2.5z"/>
			<path id="&lt;Path&gt;" class="s12" d="m332 346.6c0 1.9-1.5 3.4-3.4 3.4-1.9 0-3.4-1.5-3.4-3.4 0-1.9 1.5-3.5 3.4-3.5 1.9 0 3.4 1.6 3.4 3.5z"/>
			<g id="&lt;Group&gt;">
				<path id="&lt;Path&gt;" class="s15" d="m145.7 371c4 1.9 15.7 6.8 31.2 6.7 0.9 0 1.5 0.7 1.4 1.6l-2.1 17.1c-0.1 0.6-0.6 1.1-1.2 1.2-4.3 0.8-22 3.2-35.2-7.9-0.4-0.4-0.6-1-0.4-1.5l4.3-16.3c0.3-0.9 1.2-1.3 2-0.9z"/>
				<path id="&lt;Path&gt;" class="s2" d="m147.2 376c0 0 7.7 10.7 10.4 12.3 2.7 1.5 17.4-7.2 17.4-7.2"/>
				<path id="&lt;Path&gt;" class="s2" d="m164.8 386.8l8 8.2"/>
				<path id="&lt;Path&gt;" class="s2" d="m153.7 385.2l-9.4 2.5"/>
			</g>
			<path id="&lt;Path&gt;" class="s16" d="m390.9 177.3h-8.9v-8.9h8.9z"/>
			<g id="&lt;Group&gt;">
				<path id="&lt;Path&gt;" class="s1" d="m383.2 289.1l2.7 4.6 2.6 4.6h-5.3-5.3l2.6-4.6z"/>
			</g>
			<g id="&lt;Group&gt;">
				<path id="&lt;Path&gt;" class="s2" d="m168.2 85l0.6-20.9c0-2 0.8-2.6 2-2.8 5.7-1.3 22.9-5.2 41.7 0.4 2.4 0.7 2.4 2 2.3 3.2l-0.7 19.9c0 1.5-1.5 2.5-3.2 2.3-5.5-0.8-13-1.1-20.6-1-7.8 0-14.8 0.6-19.6 1.6-1.9 0.3-2.6-1.1-2.5-2.7z"/>
				<path id="&lt;Path&gt;" class="s2" d="m174.5 82l10.9-12.8 12.1 11.9c-4.2-1.4-23 0.9-23 0.9z"/>
				<path id="&lt;Path&gt;" class="s2" d="m192.1 75.1l8.8-7.1 7.5 5.3 0.3 8.3-11.2-0.5"/>
				<path id="&lt;Path&gt;" class="s2" d="m179.2 67.9c0.1 1-0.7 1.9-1.9 1.9-1.2 0.1-2.2-0.7-2.3-1.7-0.2-1 0.7-1.9 1.9-1.9 1.2-0.1 2.2 0.7 2.3 1.7z"/>
			</g>
			<g id="&lt;Group&gt;">
				<path id="&lt;Path&gt;" class="s2" d="m379.5 356.7l7.4 13.5c0.8 1.3 0.5 2-0.2 2.6-3.1 2.9-12.7 11.7-26.7 15.2-1.8 0.4-2.2-0.4-2.6-1.1l-7-13c-0.5-0.9 0.1-2.2 1.3-2.6 3.7-1.6 8.6-4.2 13.4-7 4.9-3 9.1-5.9 11.9-8.4 1-0.9 2-0.3 2.5 0.8z"/>
				<path id="&lt;Path&gt;" class="s2" d="m376.7 361l-2.2 12.2-12.1-3.1c3.1-0.7 14.3-9.1 14.3-9.1z"/>
				<path id="&lt;Path&gt;" class="s2" d="m368 371.9l-3 7.8-6.7-0.6-3.2-5.2 7.3-3.8"/>
				<path id="&lt;Path&gt;" class="s2" d="m378.9 371.7c-0.5-0.6-0.2-1.5 0.5-1.9 0.7-0.5 1.7-0.4 2.1 0.2 0.5 0.6 0.2 1.4-0.5 1.9-0.7 0.5-1.7 0.4-2.1-0.2z"/>
			</g>
			<g id="&lt;Group&gt;">
				<g id="&lt;Group&gt;">
					<path id="&lt;Path&gt;" class="s17" d="m343.8 125.5l29.8 22.8c0.7 0.5 1.6 0.4 2.1-0.3l4.5-6.1c0.5-0.6 0.4-1.5-0.2-2l-29.4-23.5c-0.7-0.5-1.6-0.4-2.1 0.3l-5 6.8c-0.4 0.6-0.3 1.5 0.3 2z"/>
					<path id="&lt;Path&gt;" class="s12" d="m346.1 124.5l7.2 5.1 4.2-5.1-7.2-6z"/>
					<path id="&lt;Path&gt;" class="s13" d="m356 131.6l7.2 5.7 3.9-4.8-7.3-5.9z"/>
					<path id="&lt;Path&gt;" class="s1" d="m365.7 139.5l7.2 5.1 3.4-4.4-6.8-5.8z"/>
				</g>
				<g id="&lt;Group&gt;">
					<path id="&lt;Path&gt;" class="s17" d="m403.3 93.6l6.8 57.1c0.1 1.3 1.3 2.1 2.5 2l11.5-1.6c1.2-0.2 2.1-1.3 2-2.5l-5.6-57.3c-0.1-1.3-1.3-2.2-2.6-2l-12.7 1.8c-1.2 0.2-2 1.3-1.9 2.5z"/>
					<path id="&lt;Path&gt;" class="s12" d="m406.8 95l2.1 13.3 10.2-0.7-1.1-14.4z"/>
					<path id="&lt;Path&gt;" class="s18" d="m409.7 113.4l1.4 14.1 9.4-0.8-1.3-14.4z"/>
					<path id="&lt;Path&gt;" class="s13" d="m411.3 132.5l2.1 13.4 8.5-1-1-13.6z"/>
				</g>
				<path id="&lt;Path&gt;" class="s17" d="m388.5 105.8l18.8 55.3c0.3 0.9 1.3 1.4 2.3 1.1l11.8-4.3c0.9-0.3 1.4-1.3 1.1-2.2l-17.7-55.8c-0.3-1-1.4-1.5-2.3-1.2l-12.9 4.8c-1 0.4-1.4 1.4-1.1 2.3z"/>
				<path id="&lt;Path&gt;" class="s1" d="m392.3 106.8l4.9 12.6 9.7-2.8-4-13.9z"/>
				<path id="&lt;Path&gt;" class="s5" d="m399 124.2l4.3 13.5 9-2.8-4.3-13.7z"/>
				<path id="&lt;Path&gt;" class="s13" d="m404.5 142.6l4.9 12.6 8.1-2.7-3.8-13.1z"/>
			</g>
			<g id="&lt;Group&gt;">
				<path id="&lt;Path&gt;" class="s8" d="m246.8 199.4h-95c-3 0-5.4-2.4-5.4-5.5v-12.8c0-3 2.4-5.5 5.4-5.5h95c3 0 5.5 2.5 5.5 5.5v12.8c0 3.1-2.5 5.5-5.5 5.5z"/>
				<path id="&lt;Path&gt;" class="s0" d="m211.2 186.2h-51.8c-1 0-1.8-0.8-1.8-1.8 0-1 0.8-1.8 1.8-1.8h51.8c1 0 1.8 0.8 1.8 1.8 0 1-0.8 1.8-1.8 1.8z"/>
				<path id="&lt;Path&gt;" class="s2" d="m158.2 190.9h87.9"/>
			</g>
			<g id="&lt;Group&gt;">
				<path id="&lt;Path&gt;" class="s18" d="m114.6 132.5l-1.5-1.7-4.9 4.5 1.5 1.7c0.6 0.7 1.7 0.7 2.4 0.1l2.4-2.2c0.7-0.7 0.8-1.8 0.1-2.4z"/>
				<path id="&lt;Path&gt;" class="s2" d="m106 121.8l7 7.8c0.4 0.4 0.4 1 0 1.4l-4.9 4.4c-0.4 0.4-1 0.3-1.4-0.1l-7-7.7c-0.4-0.4-0.4-1 0-1.4l4.9-4.4c0.4-0.4 1-0.4 1.4 0z"/>
			</g>
			<g id="&lt;Group&gt;">
				<path id="&lt;Path&gt;" class="s12" d="m92.3 170.8h-8.9v-8.1h8.9z"/>
				<path id="&lt;Path&gt;" class="s2" d="m83.4 157.5v5.2h-5.3"/>
			</g>
			<g id="&lt;Group&gt;">
				<path id="&lt;Path&gt;" class="s13" d="m384.5 79.4h-8.8v-8.1h8.8z"/>
				<path id="&lt;Path&gt;" class="s2" d="m375.7 66.1v5.2h-5.3"/>
			</g>
			<g id="&lt;Group&gt;">
				<path id="&lt;Path&gt;" class="s2" d="m135.6 121.3c-92-38.1-162.8 35.3 10.6 147.8 13.6 8.8 34.5 11.9 34.5 11.9"/>
				<path id="&lt;Path&gt;" class="s3" d="m53.6 123.9c0 1.5-1.2 2.6-2.6 2.6-1.5 0-2.6-1.1-2.6-2.6 0-1.4 1.1-2.6 2.6-2.6 1.4 0 2.6 1.2 2.6 2.6z"/>
				<g id="&lt;Group&gt;">
					<path id="&lt;Path&gt;" class="s2" d="m34.3 109.5l2.9-2.7 6.6 3.7 3.3 10.3-10.1-4.3z"/>
					<path id="&lt;Path&gt;" class="s2" d="m37.2 106.8l-2.9 2.7-1.6-1.9 2.7-2.7z"/>
					<path id="&lt;Path&gt;" class="s2" d="m47.1 120.8l-6.6-7.3"/>
				</g>
			</g>
			<g id="&lt;Group&gt;">
				<path id="&lt;Path&gt;" class="s17" d="m63 304.3l7.2 36.9c0.1 0.8 0.9 1.3 1.7 1.1l7.4-1.5c0.8-0.2 1.3-0.9 1.2-1.7l-6.4-37.1c-0.1-0.8-0.9-1.4-1.8-1.2l-8.1 1.8c-0.8 0.2-1.3 1-1.2 1.7z"/>
				<path id="&lt;Path&gt;" class="s12" d="m65.4 305l2 8.6 6.6-0.9-1.4-9.3z"/>
				<path id="&lt;Path&gt;" class="s13" d="m68.1 316.9l1.6 9.1 6.1-1-1.5-9.2z"/>
				<path id="&lt;Path&gt;" class="s1" d="m70.1 329.3l2 8.6 5.5-1.1-1.3-8.8z"/>
			</g>
			<g id="&lt;Group&gt;">
				<path id="&lt;Path&gt;" class="s2" d="m267.7 396.7l30.2-8.1 1.2 3.2-30.6 8z"/>
				<g id="&lt;Group&gt;">
					<path id="&lt;Path&gt;" class="s2" d="m263.5 392.4l0.9 2.8"/>
					<path id="&lt;Path&gt;" class="s2" d="m262.7 394.2l2.5-0.9"/>
				</g>
				<g id="&lt;Group&gt;">
					<path id="&lt;Path&gt;" class="s2" d="m262.1 402.9l1.6 5.2"/>
					<path id="&lt;Path&gt;" class="s2" d="m260.7 406.2l4.5-1.5"/>
				</g>
				<g id="&lt;Group&gt;">
					<path id="&lt;Path&gt;" class="s2" d="m255.1 394.4l2.2 6.8"/>
					<path id="&lt;Path&gt;" class="s2" d="m253 398.6l6.4-2"/>
				</g>
			</g>
			<g id="&lt;Group&gt;">
				<path id="&lt;Path&gt;" class="s19" d="m47.4 68.5l-19.1-8.6 0.8-2.2 19.2 8.8z"/>
				<g id="&lt;Group&gt;">
					<path id="&lt;Path&gt;" class="s19" d="m47.8 72.5l0.7-1.8"/>
					<path id="&lt;Path&gt;" class="s19" d="m49 71.9l-1.7-0.6"/>
				</g>
				<g id="&lt;Group&gt;">
					<path id="&lt;Path&gt;" class="s19" d="m53 67.7l1.4-3.4"/>
					<path id="&lt;Path&gt;" class="s19" d="m55.2 66.5l-3-1.1"/>
				</g>
				<g id="&lt;Group&gt;">
					<path id="&lt;Path&gt;" class="s19" d="m53 75l1.8-4.5"/>
					<path id="&lt;Path&gt;" class="s19" d="m55.9 73.7l-4.1-1.6"/>
				</g>
			</g>
			<g id="&lt;Group&gt;">
				<path id="&lt;Path&gt;" class="s13" d="m118.9 229.9c-13.5-9.7-26.7-24.7-20.9-40.2 0 0 9.3-6.2 24 1.5 14.7 7.8 14.7 7.8 14.7 7.8z"/>
				<g id="&lt;Group&gt;">
					<path id="&lt;Path&gt;" class="s0" d="m112.8 294.6c-6.1-2.9-32-16.4-36.6-39.4-4-19.9 11.3-46.7 18.9-58.6-0.5 15.8 15.3 29.1 22.9 34.6 7.7 5.5 13.4 8.2 21.2 11.2z"/>
					<path id="&lt;Compound Path&gt;" fill-rule="evenodd" class="s13" d="m118.9 229.9c8.1 5.9 13.7 8.5 22.4 11.7l-27.8 54.9c0 0-33.3-13.9-38.7-41-5.5-27.1 23.2-65.8 23.2-65.8-5.8 15.5 7.4 30.5 20.9 40.2zm-41.2 25c4.2 21 26.8 33.9 34.4 37.7l25.1-49.4c-7.2-2.8-12.7-5.5-20.1-10.8-13.5-9.8-21.5-20.6-23.2-31.1-7.9 13-19.7 36.1-16.2 53.6z"/>
				</g>
				<path id="&lt;Path&gt;" class="s2" d="m90.4 212.2c0 0 1.7 15.5 17.3 23.9"/>
				<path id="&lt;Path&gt;" class="s2" d="m116 241.6l15.5 8.3"/>
				<path id="&lt;Path&gt;" class="s2" d="m92.7 234.4c0 0 5 11.1 21.1 18.3"/>
				<path id="&lt;Path&gt;" class="s2" d="m79.9 236.1c0 0 0.5 11.6 8.3 15.5"/>
				<path id="&lt;Path&gt;" class="s2" d="m97.7 195.5c0 0-1.5 15 21.2 34.4"/>
				<path id="&lt;Path&gt;" class="s2" d="m106 198.3c0 0 7.2-0.6 17.8 7.2"/>
				<path id="&lt;Path&gt;" class="s2" d="m72 246.1c-0.4 7.4 0.5 34.4 39.5 51.5"/>
			</g>
			<g id="&lt;Group&gt;">
				<path id="&lt;Path&gt;" class="s18" d="m321.1 231.1l-16.6 33.2c0 0 11.3 4.1 2.5 17 0 0 20.7 8.6 34.3-13.8 13.6-22.3-20.2-36.4-20.2-36.4z"/>
				<g id="&lt;Group&gt;">
					<path id="&lt;Path&gt;" class="s0" d="m283.2 332.4c-8.4 0-17.2-3.4-26.3-10.1l31-51.3 18.4 11.6 0.1 0.1c0.2 0 4.3 1.7 10.1 1.7 4.6 0 10.5-1.1 16.2-5.1l-22.6 38.7c-0.1 0-9.8 14.4-26.9 14.4q0 0 0 0z"/>
					<path id="&lt;Compound Path&gt;" fill-rule="evenodd" class="s20" d="m311.4 318.7c0 0-10.1 15.2-28.2 15.2-7.9 0-17.4-2.9-28.2-11.2l32.4-53.8 19.6 12.4c0 0 3.9 1.6 9.5 1.6 7.2 0 17.1-2.7 24.8-15.4zm-52.4 3.2c8.4 6 16.5 9.1 24.2 9.1 15.8 0 25-12.9 25.6-13.9l19.8-33.7c-4.4 1.9-8.6 2.5-12.1 2.5-6.1 0-10.5-1.8-10.6-1.8l-0.3-0.1-0.2-0.2-17-10.7z"/>
				</g>
				<path id="&lt;Path&gt;" class="s2" d="m304.5 264.3c0 0 12.4 4.3 2.5 17"/>
				<path id="&lt;Path&gt;" class="s2" d="m287 267.8c0 0 16.8 15.4 26.1 15.3 9.3-0.1 20.2-2.3 26.7-13.4"/>
				<path id="&lt;Path&gt;" class="s2" d="m289.1 287.7c0 0 11.5 10.2 24.4 7"/>
				<path id="&lt;Path&gt;" class="s2" d="m301.2 303c0 0 6 4.5 14.5 0.3"/>
				<path id="&lt;Path&gt;" class="s2" d="m273.3 309.3c0 0 14 13.9 36 4.7"/>
				<path id="&lt;Path&gt;" class="s2" d="m280.9 295.8c0 0 5.7 4 9.3 5.3"/>
				<path id="&lt;Path&gt;" class="s2" d="m323.9 240.8c0 0 12.8 4.1 14.3 20.9"/>
				<path id="&lt;Path&gt;" class="s2" d="m330.3 261.5c0 0 5.9 9.1-4 18.2"/>
				<path id="&lt;Path&gt;" class="s2" d="m256.1 325.2c0 0 32.1 27.4 55.3-4.6"/>
			</g>
			<path id="&lt;Path&gt;" class="s21" d="m25.1 220.8h7.4"/>
			<path id="&lt;Path&gt;" class="s21" d="m440.8 131h7.5"/>
			<path id="&lt;Path&gt;" class="s22" d="m240.7 79.8h7.4"/>
			<path id="&lt;Path&gt;" class="s22" d="m455.1 169.7l7.3 1.3"/>
			<path id="&lt;Path&gt;" class="s23" d="m161.9 356h7.4"/>
			<g id="&lt;Group&gt;">
				<path id="&lt;Path&gt;" class="s24" d="m-197.5 300.8c0 8.8-7.1 15.9-15.9 15.9-8.7 0-15.9-7.1-15.9-15.9 0-8.8 7.2-15.9 15.9-15.9 8.8 0 15.9 7.1 15.9 15.9z"/>
				<g id="&lt;Clip Group&gt;" clip-path="url(#cp2)" style="opacity: .3">
					<path id="&lt;Path&gt;" class="s25" d="m-226.9 314.9c0 0 3.9-7.3 9.1-9.3 5.2-1.9 15.8 0.4 18.1 6.1 2.4 5.8-4.8 8.1-14.1 7.7-9.3-0.3-13.1-4.5-13.1-4.5z"/>
					<path id="&lt;Path&gt;" class="s26" d="m-213.6 306c-2.1 0.8-2.6 3.3-0.3 3.4 2.2 0.2 6.7-2.9 6.7-2.9l0.7-4.1c0.3-4.4 1.5-11.2 0.1-11.7-1.8-0.7-7.4-0.9-9.1-0.5-1.4 0.4-2.1 2.7-2.4 3.7-1.1 3.1-3.5 12.4 4.9 10z"/>
					<path id="&lt;Path&gt;" class="s27" d="m-215 292.4c0 0-1.5 3.6-5.4 3.7-4 0.1-4.9-5.9-1.9-6.5 2.9-0.6 6.4 0.5 6.4 0.5 0 0-1.4-2.7 1.9-2.7 3.4 0 4.2 2.7 4.2 2.7 0 0 1.5-1.8 2.7-1.3 1.1 0.4 0.3 1.8 0.3 1.8 0 0 2.5-0.3 2.4 0.8-0.2 1.2-1.4 2.6-1.4 2.6 0 0 0 9.2-1.4 9.4-1.4 0.1-2.3-4.5-2.3-4.5l-0.5-4.4c0 0-4.4 1.5-5-2.1z"/>
				</g>
			</g>
			<path id="&lt;Path&gt;" class="s15" d="m-287.1 300.8c0 8.8-7.1 15.9-15.9 15.9-8.8 0-15.9-7.1-15.9-15.9 0-8.8 7.1-15.9 15.9-15.9 8.8 0 15.9 7.1 15.9 15.9z"/>
			<g id="&lt;Clip Group&gt;" clip-path="url(#cp3)">
				<path id="&lt;Path&gt;" class="s8" d="m-316.5 314.9c0 0 3.9-7.3 9.1-9.3 5.2-1.9 15.8 0.4 18.1 6.1 2.3 5.8-4.8 8.1-14.2 7.7-9.3-0.3-13-4.5-13-4.5z"/>
				<path id="&lt;Path&gt;" class="s5" d="m-303.2 306c-2.1 0.8-2.6 3.3-0.4 3.4 2.3 0.2 6.8-2.9 6.8-2.9l0.7-4.1c0.3-4.4 1.4-11.2 0.1-11.7-1.9-0.7-7.5-0.9-9.1-0.5-1.4 0.4-2.1 2.7-2.5 3.7-1 3.1-3.4 12.4 4.9 10z"/>
				<path id="&lt;Path&gt;" class="s7" d="m-304.6 292.4c0 0-1.6 3.6-5.5 3.7-3.9 0.1-4.8-5.9-1.8-6.5 2.9-0.6 6.4 0.5 6.4 0.5 0 0-1.5-2.7 1.9-2.7 3.4 0 4.2 2.7 4.2 2.7 0 0 1.5-1.8 2.7-1.3 1.1 0.4 0.3 1.8 0.3 1.8 0 0 2.5-0.3 2.3 0.8-0.1 1.2-1.3 2.6-1.3 2.6 0 0 0 9.2-1.4 9.4-1.4 0.1-2.3-4.5-2.3-4.5l-0.5-4.4c0 0-4.4 1.5-5-2.1z"/>
			</g>
			<path id="&lt;Path&gt;" class="s24" d="m-243.5 300.8c0 8.8-7.2 15.9-15.9 15.9-8.8 0-16-7.1-16-15.9 0-8.8 7.2-15.9 16-15.9 8.7 0 15.9 7.1 15.9 15.9z"/>
			<g id="&lt;Clip Group&gt;" clip-path="url(#cp4)" style="opacity: .3">
				<path id="&lt;Path&gt;" class="s25" d="m-273 314.9c0 0 3.9-7.3 9.1-9.3 5.2-1.9 15.8 0.4 18.1 6.1 2.4 5.8-4.8 8.1-14.1 7.7-9.3-0.3-13.1-4.5-13.1-4.5z"/>
				<path id="&lt;Path&gt;" class="s26" d="m-259.7 306c-2.1 0.8-2.6 3.3-0.3 3.4 2.2 0.2 6.7-2.9 6.7-2.9l0.7-4.1c0.4-4.4 1.5-11.2 0.2-11.7-1.9-0.7-7.5-0.9-9.2-0.5-1.3 0.4-2.1 2.7-2.4 3.7-1.1 3.1-3.5 12.4 4.9 10z"/>
				<path id="&lt;Path&gt;" class="s27" d="m-261.1 292.4c0 0-1.5 3.6-5.4 3.7-3.9 0.1-4.8-5.9-1.9-6.5 2.9-0.6 6.4 0.5 6.4 0.5 0 0-1.4-2.7 2-2.7 3.3 0 4.1 2.7 4.1 2.7 0 0 1.6-1.8 2.7-1.3 1.2 0.4 0.4 1.8 0.4 1.8 0 0 2.5-0.3 2.3 0.8-0.2 1.2-1.4 2.6-1.4 2.6 0 0 0 9.2-1.4 9.4-1.4 0.1-2.3-4.5-2.3-4.5l-0.4-4.4c0 0-4.5 1.5-5.1-2.1z"/>
			</g>
			<path id="&lt;Path&gt;" class="s18" d="m473.6 262.9c0 1.4-1.1 2.5-2.5 2.5-1.3 0-2.4-1.1-2.4-2.5 0-1.4 1.1-2.5 2.4-2.5 1.4 0 2.5 1.1 2.5 2.5z"/>
			<path id="&lt;Path&gt;" class="s18" d="m9.2 144.3c0 1.4-1.1 2.5-2.5 2.5-1.3 0-2.4-1.1-2.4-2.5 0-1.4 1.1-2.5 2.4-2.5 1.4 0 2.5 1.1 2.5 2.5z"/>
			<path id="&lt;Path&gt;" class="s2" d=""/>
			<path id="&lt;Path&gt;" class="s3" d="m499.1 424.6c-1.4-0.4-2.1-1.9-1.7-3.2 0.4-1.4 1.9-2.2 3.3-1.8 1.4 0.5 2.1 2 1.7 3.3-0.4 1.4-1.9 2.2-3.3 1.7z"/>
			<path id="&lt;Path&gt;" class="s3" d="m648.5 336.1c-1.4-0.4-2.1-1.9-1.7-3.3 0.5-1.4 1.9-2.1 3.3-1.7 1.4 0.4 2.2 1.9 1.7 3.3-0.4 1.4-1.9 2.1-3.3 1.7z"/>
			<path id="&lt;Path&gt;" class="s2" d="m649.9 332.7c0 0 20.6-61.4-71.5-25.2-95.7 37.6-133.9 116.5-118.2 122.7 15.7 6.2 39-7.8 39-7.8"/>
		</g>
	</g>
</svg>